<mxfile host="app.diagrams.net" modified="2022-03-07T11:37:36.561Z" agent="5.0 (Macintosh; Intel Mac OS X 10_15_7) AppleWebKit/537.36 (KHTML, like Gecko) Chrome/98.0.4758.80 Safari/537.36 Edg/98.0.1108.43" etag="R9RY4TprtrsTqIzXXdZv" version="16.6.5" type="github">
  <diagram id="SPSlFT2sZeRu8J8Mqurk" name="Page-1">
    <mxGraphModel dx="998" dy="692" grid="1" gridSize="10" guides="1" tooltips="1" connect="1" arrows="1" fold="1" page="1" pageScale="1" pageWidth="2336" pageHeight="1654" math="0" shadow="0">
      <root>
        <mxCell id="0" />
        <mxCell id="1" parent="0" />
        <mxCell id="T0gfE41if6vC12bEkVcH-33" value="" style="rounded=0;whiteSpace=wrap;html=1;fillColor=none;dashed=1;strokeColor=#6c8ebf;" parent="1" vertex="1">
          <mxGeometry x="100" y="51" width="160" height="340" as="geometry" />
        </mxCell>
        <mxCell id="T0gfE41if6vC12bEkVcH-24" value="" style="rounded=0;whiteSpace=wrap;html=1;fillColor=none;dashed=1;strokeColor=#d79b00;" parent="1" vertex="1">
          <mxGeometry x="700" y="50" width="160" height="341" as="geometry" />
        </mxCell>
        <mxCell id="T0gfE41if6vC12bEkVcH-28" style="edgeStyle=orthogonalEdgeStyle;rounded=0;orthogonalLoop=1;jettySize=auto;html=1;entryX=0.002;entryY=0.44;entryDx=0;entryDy=0;entryPerimeter=0;" parent="1" source="T0gfE41if6vC12bEkVcH-21" target="T0gfE41if6vC12bEkVcH-24" edge="1">
          <mxGeometry relative="1" as="geometry">
            <Array as="points">
              <mxPoint x="670" y="200" />
              <mxPoint x="670" y="200" />
            </Array>
          </mxGeometry>
        </mxCell>
        <mxCell id="T0gfE41if6vC12bEkVcH-21" value="" style="rounded=0;whiteSpace=wrap;html=1;fillColor=none;dashed=1;strokeColor=#d6b656;" parent="1" vertex="1">
          <mxGeometry x="500" y="50" width="160" height="340" as="geometry" />
        </mxCell>
        <mxCell id="T0gfE41if6vC12bEkVcH-3" value="" style="edgeStyle=orthogonalEdgeStyle;rounded=0;orthogonalLoop=1;jettySize=auto;html=1;" parent="1" target="T0gfE41if6vC12bEkVcH-2" edge="1">
          <mxGeometry relative="1" as="geometry">
            <mxPoint x="260" y="200" as="sourcePoint" />
          </mxGeometry>
        </mxCell>
        <mxCell id="T0gfE41if6vC12bEkVcH-1" value="模板 2&lt;br&gt;template" style="rounded=0;whiteSpace=wrap;html=1;fillColor=#dae8fc;strokeColor=#6c8ebf;" parent="1" vertex="1">
          <mxGeometry x="120" y="170" width="120" height="60" as="geometry" />
        </mxCell>
        <mxCell id="T0gfE41if6vC12bEkVcH-27" value="" style="edgeStyle=orthogonalEdgeStyle;rounded=0;orthogonalLoop=1;jettySize=auto;html=1;" parent="1" source="T0gfE41if6vC12bEkVcH-2" edge="1">
          <mxGeometry relative="1" as="geometry">
            <mxPoint x="500" y="200" as="targetPoint" />
          </mxGeometry>
        </mxCell>
        <mxCell id="T0gfE41if6vC12bEkVcH-2" value="智能页模块&lt;br&gt;modules" style="rounded=0;whiteSpace=wrap;html=1;fillColor=#d5e8d4;strokeColor=#82b366;" parent="1" vertex="1">
          <mxGeometry x="320" y="170" width="120" height="60" as="geometry" />
        </mxCell>
        <mxCell id="T0gfE41if6vC12bEkVcH-6" value="样式容器&lt;br&gt;widget" style="rounded=0;whiteSpace=wrap;html=1;fillColor=#fff2cc;strokeColor=#d6b656;" parent="1" vertex="1">
          <mxGeometry x="520" y="90" width="120" height="60" as="geometry" />
        </mxCell>
        <mxCell id="T0gfE41if6vC12bEkVcH-8" value="样式容器&lt;br&gt;widget&amp;nbsp;" style="rounded=0;whiteSpace=wrap;html=1;fillColor=#fff2cc;strokeColor=#d6b656;" parent="1" vertex="1">
          <mxGeometry x="520" y="170" width="120" height="60" as="geometry" />
        </mxCell>
        <mxCell id="T0gfE41if6vC12bEkVcH-11" value="样式容器&lt;br&gt;widget" style="rounded=0;whiteSpace=wrap;html=1;fillColor=#fff2cc;strokeColor=#d6b656;" parent="1" vertex="1">
          <mxGeometry x="520" y="250" width="120" height="60" as="geometry" />
        </mxCell>
        <mxCell id="T0gfE41if6vC12bEkVcH-13" value="&lt;span&gt;样式容器&lt;/span&gt;……" style="text;html=1;align=center;verticalAlign=middle;resizable=0;points=[];autosize=1;strokeColor=none;fillColor=none;" parent="1" vertex="1">
          <mxGeometry x="535" y="340" width="90" height="20" as="geometry" />
        </mxCell>
        <mxCell id="T0gfE41if6vC12bEkVcH-15" value="样式组件&lt;br&gt;comp" style="rounded=0;whiteSpace=wrap;html=1;fillColor=#ffe6cc;strokeColor=#d79b00;" parent="1" vertex="1">
          <mxGeometry x="720" y="90" width="120" height="60" as="geometry" />
        </mxCell>
        <mxCell id="T0gfE41if6vC12bEkVcH-17" value="样式组件&lt;br&gt;comp" style="rounded=0;whiteSpace=wrap;html=1;fillColor=#ffe6cc;strokeColor=#d79b00;" parent="1" vertex="1">
          <mxGeometry x="720" y="170" width="120" height="60" as="geometry" />
        </mxCell>
        <mxCell id="T0gfE41if6vC12bEkVcH-19" value="样式组件&lt;br&gt;comp" style="rounded=0;whiteSpace=wrap;html=1;fillColor=#ffe6cc;strokeColor=#d79b00;" parent="1" vertex="1">
          <mxGeometry x="720" y="250" width="120" height="60" as="geometry" />
        </mxCell>
        <mxCell id="T0gfE41if6vC12bEkVcH-20" value="样式组件……" style="text;html=1;align=center;verticalAlign=middle;resizable=0;points=[];autosize=1;strokeColor=none;fillColor=none;" parent="1" vertex="1">
          <mxGeometry x="735" y="340" width="90" height="20" as="geometry" />
        </mxCell>
        <mxCell id="T0gfE41if6vC12bEkVcH-30" value="模板 1&lt;br&gt;template" style="rounded=0;whiteSpace=wrap;html=1;fillColor=#dae8fc;strokeColor=#6c8ebf;" parent="1" vertex="1">
          <mxGeometry x="120" y="90" width="120" height="60" as="geometry" />
        </mxCell>
        <mxCell id="T0gfE41if6vC12bEkVcH-31" value="模板 3&lt;br&gt;template" style="rounded=0;whiteSpace=wrap;html=1;fillColor=#dae8fc;strokeColor=#6c8ebf;" parent="1" vertex="1">
          <mxGeometry x="120" y="250" width="120" height="60" as="geometry" />
        </mxCell>
        <mxCell id="T0gfE41if6vC12bEkVcH-32" value="模板 4……" style="text;html=1;align=center;verticalAlign=middle;resizable=0;points=[];autosize=1;strokeColor=none;fillColor=none;" parent="1" vertex="1">
          <mxGeometry x="145" y="340" width="70" height="20" as="geometry" />
        </mxCell>
        <mxCell id="T0gfE41if6vC12bEkVcH-36" value="页面结构设计" style="text;html=1;align=center;verticalAlign=middle;resizable=0;points=[];autosize=1;strokeColor=none;fillColor=none;" parent="1" vertex="1">
          <mxGeometry x="100" y="420" width="90" height="20" as="geometry" />
        </mxCell>
        <mxCell id="T0gfE41if6vC12bEkVcH-40" value="" style="edgeStyle=orthogonalEdgeStyle;rounded=0;orthogonalLoop=1;jettySize=auto;html=1;" parent="1" source="T0gfE41if6vC12bEkVcH-38" target="T0gfE41if6vC12bEkVcH-39" edge="1">
          <mxGeometry relative="1" as="geometry" />
        </mxCell>
        <mxCell id="T0gfE41if6vC12bEkVcH-38" value="初始化" style="rounded=0;whiteSpace=wrap;html=1;strokeColor=default;fillColor=default;" parent="1" vertex="1">
          <mxGeometry x="120" y="660" width="120" height="60" as="geometry" />
        </mxCell>
        <mxCell id="T0gfE41if6vC12bEkVcH-42" value="" style="edgeStyle=orthogonalEdgeStyle;rounded=0;orthogonalLoop=1;jettySize=auto;html=1;entryX=0;entryY=0.5;entryDx=0;entryDy=0;" parent="1" source="T0gfE41if6vC12bEkVcH-39" target="T0gfE41if6vC12bEkVcH-41" edge="1">
          <mxGeometry relative="1" as="geometry">
            <Array as="points">
              <mxPoint x="480" y="690" />
              <mxPoint x="480" y="590" />
            </Array>
          </mxGeometry>
        </mxCell>
        <mxCell id="T0gfE41if6vC12bEkVcH-44" style="edgeStyle=orthogonalEdgeStyle;rounded=0;orthogonalLoop=1;jettySize=auto;html=1;entryX=0;entryY=0.5;entryDx=0;entryDy=0;" parent="1" source="T0gfE41if6vC12bEkVcH-39" target="T0gfE41if6vC12bEkVcH-43" edge="1">
          <mxGeometry relative="1" as="geometry" />
        </mxCell>
        <mxCell id="T0gfE41if6vC12bEkVcH-47" style="edgeStyle=orthogonalEdgeStyle;rounded=0;orthogonalLoop=1;jettySize=auto;html=1;entryX=0;entryY=0.5;entryDx=0;entryDy=0;" parent="1" source="T0gfE41if6vC12bEkVcH-39" target="T0gfE41if6vC12bEkVcH-46" edge="1">
          <mxGeometry relative="1" as="geometry" />
        </mxCell>
        <mxCell id="T0gfE41if6vC12bEkVcH-39" value="依据 querys、props&lt;br&gt;确定当前模板" style="rounded=0;whiteSpace=wrap;html=1;strokeColor=default;fillColor=default;" parent="1" vertex="1">
          <mxGeometry x="320" y="660" width="120" height="60" as="geometry" />
        </mxCell>
        <mxCell id="T0gfE41if6vC12bEkVcH-41" value="渲染骨架图" style="rounded=0;whiteSpace=wrap;html=1;strokeColor=default;fillColor=default;" parent="1" vertex="1">
          <mxGeometry x="520" y="560" width="160" height="60" as="geometry" />
        </mxCell>
        <mxCell id="T0gfE41if6vC12bEkVcH-49" style="edgeStyle=orthogonalEdgeStyle;rounded=0;orthogonalLoop=1;jettySize=auto;html=1;entryX=0;entryY=0.5;entryDx=0;entryDy=0;" parent="1" source="T0gfE41if6vC12bEkVcH-43" target="T0gfE41if6vC12bEkVcH-48" edge="1">
          <mxGeometry relative="1" as="geometry" />
        </mxCell>
        <mxCell id="T0gfE41if6vC12bEkVcH-43" value="请求&lt;b&gt;接口&lt;/b&gt;&lt;br&gt;获取物料" style="rounded=0;whiteSpace=wrap;html=1;strokeColor=default;fillColor=default;" parent="1" vertex="1">
          <mxGeometry x="520" y="660" width="160" height="60" as="geometry" />
        </mxCell>
        <mxCell id="T0gfE41if6vC12bEkVcH-46" value="依据模板&lt;br&gt;预加载所需的&lt;b&gt;样式组件&lt;br&gt;&lt;/b&gt;loadAndRegisteWidget" style="rounded=0;whiteSpace=wrap;html=1;strokeColor=default;fillColor=default;" parent="1" vertex="1">
          <mxGeometry x="520" y="760" width="160" height="60" as="geometry" />
        </mxCell>
        <mxCell id="T0gfE41if6vC12bEkVcH-51" value="" style="edgeStyle=orthogonalEdgeStyle;rounded=0;orthogonalLoop=1;jettySize=auto;html=1;" parent="1" source="T0gfE41if6vC12bEkVcH-48" target="T0gfE41if6vC12bEkVcH-50" edge="1">
          <mxGeometry relative="1" as="geometry" />
        </mxCell>
        <mxCell id="T0gfE41if6vC12bEkVcH-53" value="NO" style="edgeLabel;html=1;align=center;verticalAlign=middle;resizable=0;points=[];" parent="T0gfE41if6vC12bEkVcH-51" vertex="1" connectable="0">
          <mxGeometry x="0.1737" y="-4" relative="1" as="geometry">
            <mxPoint x="4" y="-3" as="offset" />
          </mxGeometry>
        </mxCell>
        <mxCell id="T0gfE41if6vC12bEkVcH-55" value="YES" style="edgeStyle=orthogonalEdgeStyle;rounded=0;orthogonalLoop=1;jettySize=auto;html=1;" parent="1" source="T0gfE41if6vC12bEkVcH-48" target="T0gfE41if6vC12bEkVcH-54" edge="1">
          <mxGeometry relative="1" as="geometry" />
        </mxCell>
        <mxCell id="T0gfE41if6vC12bEkVcH-48" value="请求成功" style="rhombus;whiteSpace=wrap;html=1;strokeColor=#d79b00;fillColor=#ffe6cc;" parent="1" vertex="1">
          <mxGeometry x="760" y="660" width="120" height="60" as="geometry" />
        </mxCell>
        <mxCell id="T0gfE41if6vC12bEkVcH-50" value="渲染兜底样式" style="whiteSpace=wrap;html=1;" parent="1" vertex="1">
          <mxGeometry x="760" y="760" width="120" height="60" as="geometry" />
        </mxCell>
        <mxCell id="T0gfE41if6vC12bEkVcH-54" value="渲染对应的模板" style="whiteSpace=wrap;html=1;" parent="1" vertex="1">
          <mxGeometry x="960" y="660" width="120" height="60" as="geometry" />
        </mxCell>
        <mxCell id="T0gfE41if6vC12bEkVcH-56" value="页面初始化设计" style="text;html=1;align=center;verticalAlign=middle;resizable=0;points=[];autosize=1;strokeColor=none;fillColor=none;" parent="1" vertex="1">
          <mxGeometry x="115" y="840" width="100" height="20" as="geometry" />
        </mxCell>
        <mxCell id="I891NdiEfrEoMfCyLwhJ-1" value="mold" style="rounded=0;whiteSpace=wrap;html=1;fillColor=#d5e8d4;strokeColor=#82b366;" vertex="1" parent="1">
          <mxGeometry x="320" y="250" width="120" height="60" as="geometry" />
        </mxCell>
      </root>
    </mxGraphModel>
  </diagram>
</mxfile>
